<svg xmlns="http://www.w3.org/2000/svg" width="46.844" height="48" viewBox="0 0 46.844 48">
  <defs>
    <style>
      .cls-1 {
        fill: #fff;
        fill-rule: evenodd;
      }
    </style>
  </defs>
  <path id="qq" class="cls-1" d="M43.582,57.8l-0.09-.278-0.072-.363-0.05-.2V56.142l0.086-.321,0.09-.343,0.115-.356,0.156-.4,0.207-.414,0.291-.415V53.6l0.029-.271,0.043-.37,0.126-.412,0.115-.45,0.092-.207,0.106-.192,0.136-.213,0.148-.159V50.307l0.086-.528,0.086-.613,0.154-.733,0.212-.763,0.158-.42,0.156-.456,0.17-.428,0.205-.455,0.208-.5,0.241-.47,0.269-.5,0.341-.5,0.156-.285,0.169-.234,0.364-.528,0.374-.526,0.428-.542,0.456-.529,0.5-.52,0.517-.535,0.625-.576,0.4-.35,0.483-.377,0.49-.334,0.531-.321L53.4,38l0.575-.234,0.611-.293,0.607-.2,0.607-.207,0.654-.206L57.1,36.7l0.69-.127,0.7-.115,0.686-.093,0.69-.093,0.733-.042h2.166l0.722,0.093,0.725,0.086,0.74,0.079,0.686,0.164,0.725,0.155,0.681,0.178,0.745,0.2,0.683,0.243,0.654,0.278L69.822,38l0.637,0.321,0.618,0.356,0.605,0.394,0.525,0.362,0.24,0.207L72.7,39.79,73.188,40.2,73.6,40.6,74,41.015l0.4,0.456,0.327,0.441,0.388,0.458,0.273,0.49L75.665,43.3,75.957,43.8,76.2,44.243l0.41,0.933,0.2,0.484,0.156,0.448,0.156,0.486,0.14,0.456,0.1,0.392,0.126,0.464,0.223,0.827,0.142,0.719,0.092,0.7,0.079,0.561,0.126,0.855L78.177,51.7l0.1,0.157L78.547,52.3l0.173,0.3,0.154,0.314,0.2,0.335,0.172,0.4,0.111,0.411,0.122,0.45,0.093,0.461L79.614,55.2l0.036,0.278v0.243l-0.036.243v0.3l-0.072.292-0.129.563-0.147.285-0.108.321V57.8l0.05,0.1,0.147,0.234,0.64,0.948L80.5,59.8l0.241,0.479,0.327,0.52,0.284,0.568,0.327,0.613,0.327,0.685,0.368,0.778,0.206,0.475,0.19,0.464,0.165,0.492L83.1,65.312l0.122,0.464,0.126,0.435L83.5,67.058l0.126,0.868,0.086,0.77v1.083l-0.058.385-0.083.663-0.115.6-0.176.54-0.064.221L83.1,72.45l-0.1.187-0.136.228-0.122.143-0.154.186-0.136.147L82.3,73.47l-0.176.079-0.158.079-0.129.041h-0.2l-0.128-.041-0.242-.122-0.111-.079-0.115-.086-0.127-.113L80.785,73.1l-0.212-.236-0.251-.335-0.2-.343-0.2-.278-0.192-.319-0.271-.572-0.305-.591-0.036-.02h-0.05l-0.126.09-0.072.157-0.119.194-0.208.577-0.312.819-0.4.984-0.3.492-0.318.513-0.375.576-0.4.565-0.2.255-0.248.278-0.569.563,0.05,0.05L75.544,76.6l0.284,0.17,1.186,0.571,0.517,0.292,0.492,0.284,0.488,0.358,0.435,0.37,0.212,0.164L79.316,79l0.162,0.22,0.136,0.243,0.072,0.2,0.09,0.243,0.036,0.206,0.043,0.243-0.043.164v0.163l-0.036.172-0.09.156-0.036.122-0.079.148-0.216.293-0.2.237L79,81.984l-0.13.13-0.327.242-0.37.209-0.4.2-0.42.192-0.474.185-0.251.079-0.226.063-0.546.129-0.568.121-0.568.122-0.618.1-0.639.027-0.654.078H70.788l-0.733-.042-0.683-.063-0.733-.1-0.729-.079-0.769-.108L66.4,83.282l-0.726-.142-0.722-.208-0.74-.263-0.725-.22L63.1,82.322,62.764,82.2l-0.216-.085-0.212-.042h-0.6l-0.7-.051-0.354-.037-0.454-.048-0.291.264-0.4.249L59,82.713l-0.6.327-0.363.179-0.377.141-0.837.343-0.454.115-0.476.128-0.661.127-0.413.035-0.438.036-0.456.05-0.532.022H51.224L50,84.194l-1.189-.122-0.6-.085L47.623,83.9l-0.568-.085L46.488,83.7l-0.526-.171-0.526-.121-0.474-.192-0.449-.179-0.417-.2-0.363-.222-0.363-.263-0.122-.128-0.162-.156-0.122-.136-0.112-.156-0.1-.158-0.079-.156-0.113-.334-0.041-.172-0.05-.192V80.589l0.05-.2v-0.2l0.041-.2v-0.4l0.02-.214,0.093-.242,0.079-.243L42.9,78.6l0.1-.114,0.086-.128,0.226-.278,0.18-.142,0.169-.1,0.156-.128,0.249-.078,0.2-.122,0.248-.128L44.8,77.3l0.284-.088,0.327-.07,0.313-.043,0.37-.05,0.4-.028,0.106-.037h0.021l0.05-.043V76.891l-0.072-.1-0.214-.1-0.532-.462-0.356-.284L45.08,75.58l-0.417-.406-0.434-.52-0.5-.584-0.187-.314L43.3,73.427l-0.212-.378-0.19-.412-0.258-.392L42.468,71.8l-0.2-.449-0.2-.5-0.147-.477-0.136-.593-0.043-.022H41.7l-0.021-.043H41.63l-0.084.043-0.043.022-0.058.1L41.423,70l-0.043.108-0.075.178-0.244.436-0.126.264-0.2.228-0.214.276-0.234.308-0.248.271-0.291.261-0.271.249-0.3.194-0.327.206-0.312.122-0.37.093-0.362.034H37.723l-0.083-.034-0.065-.145-0.108-.07-0.14-.342-0.086-.187-0.093-.263-0.077-.278-0.041-.271-0.115-.62-0.043-.364v-1.2l0.043-.891,0.072-.455,0.084-.471,0.077-.505,0.136-.471,0.155-.544L37.6,65.6l0.212-.543,0.2-.519,0.275-.528,0.259-.568,0.312-.535,0.368-.578,0.375-.519,0.392-.577,0.327-.4,0.419-.464,0.44-.462,0.2-.221,0.25-.249,0.361-.314,0.37-.321,0.6-.54,0.456-.335Z" transform="translate(-36.875 -36.219)"/>
</svg>
