<svg xmlns="http://www.w3.org/2000/svg" width="52" height="52" viewBox="0 0 52 52">
  <defs>
    <style>
      .cls-1 {
        fill: #fff;
        fill-rule: evenodd;
      }
    </style>
  </defs>
  <path id="tel" class="cls-1" d="M53.944,186.152c4.665,4.639,10.064,9.072,12.183,6.931,3.035-3.063,4.9-5.729,11.638-.347s1.591,9.009-1.348,11.978c-3.393,3.425-16.1.239-28.691-12.284S31.859,167.2,35.254,163.771c2.941-2.969,6.518-8.149,11.939-1.44s2.778,8.6-.257,11.663C44.816,176.134,49.279,181.51,53.944,186.152Zm6.764-22.137a2.992,2.992,0,0,0-2.393.768,2.747,2.747,0,0,0,.011,3.837,3.04,3.04,0,0,0,1.522.768,13.1,13.1,0,0,1,10.8,10.82,3.051,3.051,0,0,0,.767,1.525,2.733,2.733,0,0,0,3.829.01,3.015,3.015,0,0,0,.766-2.4A18.533,18.533,0,0,0,60.708,164.015Zm13.2,2.1c5.1,5.115,7.279,10.918,6.572,15.622A3.081,3.081,0,0,0,81.2,184.2a2.727,2.727,0,0,0,3.847.008,3.422,3.422,0,0,0,.8-1.731c0.585-4.064-.151-12.241-8.1-20.208s-16.11-8.706-20.166-8.12a3.4,3.4,0,0,0-1.727.8,2.739,2.739,0,0,0,.008,3.855,3.067,3.067,0,0,0,2.457.726C63.012,158.825,68.8,161.005,73.907,166.119Z" transform="translate(-34 -154)"/>
</svg>
